<?xml version="1.0" standalone="no"?><!DOCTYPE svg PUBLIC "-//W3C//DTD SVG 1.1//EN" "http://www.w3.org/Graphics/SVG/1.1/DTD/svg11.dtd"><svg t="1587694106488" class="icon" viewBox="0 0 1024 1024" version="1.1" xmlns="http://www.w3.org/2000/svg" p-id="1157" xmlns:xlink="http://www.w3.org/1999/xlink" width="200" height="200"><defs><style type="text/css"></style></defs><path d="M471 896c-11.3 0-22.5-4.3-31.1-12.9l-299-299c-17.2-17.2-17.2-45.1 0-62.2l372.5-372.5c6-6 14.1-9.4 22.6-9.4h303.2c24.7 0 44.8 20.1 44.8 44.8V488c0 8.5-3.4 16.6-9.4 22.6L502.1 883.1c-8.6 8.6-19.8 12.9-31.1 12.9zM200.3 553L471 823.7l349-349V204H549.3l-349 349zM852 488z" p-id="1158" fill="#656565"></path><path d="M648 478c-56.2 0-102-45.8-102-102s45.8-102 102-102 102 45.8 102 102-45.8 102-102 102z m0-140c-21 0-38 17-38 38s17 38 38 38 38-17 38-38-17-38-38-38z" p-id="1159" fill="#656565"></path></svg>