<?xml version="1.0" standalone="no"?><!DOCTYPE svg PUBLIC "-//W3C//DTD SVG 1.1//EN" "http://www.w3.org/Graphics/SVG/1.1/DTD/svg11.dtd"><svg t="1587694122904" class="icon" viewBox="0 0 1024 1024" version="1.1" xmlns="http://www.w3.org/2000/svg" p-id="1320" xmlns:xlink="http://www.w3.org/1999/xlink" width="200" height="200"><defs><style type="text/css"></style></defs><path d="M562.125 938.583c-1.458 0-2.926-0.048-4.401-0.145-27.385-1.804-49.906-20.033-57.377-46.44L418.461 602.55l-286.247-78.904c-26.56-7.32-44.945-29.811-46.841-57.296s13.23-52.286 38.534-63.184L849.369 90.739c24.233-10.433 51.935-5.119 70.583 13.54 18.647 18.659 23.946 46.367 13.497 70.59L620.695 899.924c-10.283 23.842-32.964 38.659-58.57 38.659z m-0.068-63.654c0 0.003 0 0.001 0 0z m-0.3-0.018zM149.221 461.947l286.248 78.904c21.44 5.91 38.521 22.875 44.575 44.276l81.887 289.448L874.684 149.52 149.221 461.947z" fill="#656565" p-id="1321"></path></svg>