<?xml version="1.0" standalone="no"?><!DOCTYPE svg PUBLIC "-//W3C//DTD SVG 1.1//EN" "http://www.w3.org/Graphics/SVG/1.1/DTD/svg11.dtd"><svg t="1587694193171" class="icon" viewBox="0 0 1024 1024" version="1.1" xmlns="http://www.w3.org/2000/svg" p-id="1482" xmlns:xlink="http://www.w3.org/1999/xlink" width="200" height="200"><defs><style type="text/css"></style></defs><path d="M903.68 663.04c11.264 0 20.48-9.216 20.48-20.48V244.736c0-39.424-32.256-71.68-71.68-71.68h-105.472v-38.912c0-22.528-18.432-40.96-40.96-40.96H318.464c-22.528 0-40.96 18.432-40.96 40.96v38.912H171.52c-39.424 0-71.68 32.256-71.68 71.68V855.04c0 39.424 32.256 71.68 71.68 71.68h680.96c39.424 0 71.68-32.256 71.68-71.68v-61.44c0-11.264-9.216-20.48-20.48-20.48s-20.48 9.216-20.48 20.48v61.44c0 16.896-13.824 30.72-30.72 30.72h-680.96c-16.896 0-30.72-13.824-30.72-30.72V244.736c0-16.896 13.824-30.72 30.72-30.72h105.472v34.304c0 22.528 18.432 40.96 40.96 40.96h388.096c22.528 0 40.96-18.432 40.96-40.96v-34.304h105.472c16.896 0 30.72 13.824 30.72 30.72v397.824c0 11.264 9.216 20.48 20.48 20.48zM318.464 248.832V134.656H706.56v114.688H318.464z" fill="#656565" p-id="1483"></path><path d="M705.024 396.288c-8.192-8.192-20.992-8.192-29.184 0l-163.84 164.352-163.84-164.352c-8.192-8.192-20.992-8.192-29.184 0-8.192 8.192-8.192 20.992 0 29.184l164.352 164.352-164.352 164.352c-8.192 8.192-8.192 20.992 0 29.184 4.096 4.096 9.216 6.144 14.336 6.144s10.24-2.048 14.336-6.144l164.352-164.352 164.352 164.352c4.096 4.096 9.216 6.144 14.336 6.144s10.24-2.048 14.336-6.144c8.192-8.192 8.192-20.992 0-29.184l-164.352-164.352 164.352-164.352c8.192-8.192 8.192-20.992 0-29.184z" fill="#656565" p-id="1484"></path></svg>