<?xml version="1.0" standalone="no"?><!DOCTYPE svg PUBLIC "-//W3C//DTD SVG 1.1//EN" "http://www.w3.org/Graphics/SVG/1.1/DTD/svg11.dtd"><svg t="1587694462705" class="icon" viewBox="0 0 1024 1024" version="1.1" xmlns="http://www.w3.org/2000/svg" p-id="2843" xmlns:xlink="http://www.w3.org/1999/xlink" width="200" height="200"><defs><style type="text/css"></style></defs><path d="M512 0C230.4 0 0 230.4 0 512s230.4 512 512 512 512-230.4 512-512S793.6 0 512 0zM512 877.714286c-40.228571 0-73.142857-32.914286-73.142857-73.142857s32.914286-73.142857 73.142857-73.142857 73.142857 32.914286 73.142857 73.142857S552.228571 877.714286 512 877.714286zM585.142857 512c0 40.228571-32.914286 73.142857-73.142857 73.142857s-73.142857-32.914286-73.142857-73.142857L438.857143 219.428571c0-40.228571 32.914286-73.142857 73.142857-73.142857s73.142857 32.914286 73.142857 73.142857L585.142857 512z" p-id="2844" fill="#D9001B"></path></svg>