<?xml version="1.0" standalone="no"?><!DOCTYPE svg PUBLIC "-//W3C//DTD SVG 1.1//EN" "http://www.w3.org/Graphics/SVG/1.1/DTD/svg11.dtd"><svg t="1587699576280" class="icon" viewBox="0 0 1024 1024" version="1.1" xmlns="http://www.w3.org/2000/svg" p-id="12923" xmlns:xlink="http://www.w3.org/1999/xlink" width="200" height="200"><defs><style type="text/css"></style></defs><path d="M638.592 897.184a24 24 0 1 1 14.88 45.648c-10.384 3.36-21.024 6.416-31.68 9.072a24 24 0 0 1-11.584-46.576 426.72 426.72 0 0 0 28.384-8.144z m-118.592 36.96c4.992 4.4 8.224 10.72 8.224 17.856 0 7.232-3.216 13.648-8.224 18.048v6.16l-15.136-0.256-0.432 0.048H504c-2.384 0-4.752-0.16-7.12-0.192l-1.296-0.016-0.592-0.016a493.68 493.68 0 0 1-20.16-0.768c-1.088-0.064-2.192-0.048-3.264-0.112-0.512-0.032-0.976-0.192-1.472-0.256-38.224-2.72-75.2-9.952-110.4-21.28-0.352-0.112-0.704-0.064-1.056-0.176-2.768-0.896-5.504-2.048-8.272-2.992a504.048 504.048 0 0 1-14.496-5.248c-2.736-1.056-5.536-1.904-8.24-2.992-0.752-0.304-1.392-0.736-2.08-1.104a470.368 470.368 0 0 1-96.624-53.664c-0.624-0.368-1.312-0.528-1.92-0.96a478.688 478.688 0 0 1-25.952-20.256c-0.912-0.768-1.664-1.632-2.432-2.496a475.312 475.312 0 0 1-74.576-79.84c-0.48-0.544-1.056-0.992-1.504-1.6-2.544-3.488-4.864-7.216-7.328-10.816-1.536-2.224-3.04-4.448-4.544-6.704-2.192-3.28-4.512-6.4-6.608-9.728-0.496-0.8-0.816-1.632-1.216-2.448a471.28 471.28 0 0 1-47.024-100.544c-0.16-0.416-0.448-0.72-0.592-1.152-0.416-1.312-0.72-2.656-1.136-3.984a470.4 470.4 0 0 1-7.456-25.888l-0.512-1.808c-0.096-0.384-0.096-0.784-0.176-1.168a469.536 469.536 0 0 1-13.92-112.64L32 504.864V504c0-9.648 0.368-19.184 0.96-28.688 0.048-1.104 0.032-2.192 0.096-3.28 0.032-0.528 0.192-0.992 0.256-1.504a469.104 469.104 0 0 1 21.04-109.984c0.128-0.496 0.16-0.992 0.32-1.472 0.88-2.704 1.984-5.312 2.912-8.016 1.776-5.216 3.632-10.4 5.6-15.52 0.96-2.464 1.728-5.04 2.704-7.456 0.288-0.688 0.672-1.28 1.008-1.936a471.888 471.888 0 0 1 52.928-95.856c0.512-0.976 1.024-1.968 1.696-2.896 6.4-8.848 13.2-17.584 20.208-25.984 0.736-0.864 1.568-1.584 2.384-2.32a474.48 474.48 0 0 1 79.664-74.624c0.608-0.56 1.168-1.168 1.856-1.664 3.392-2.496 7.008-4.72 10.512-7.136 2.576-1.792 5.168-3.552 7.776-5.296 3.024-1.984 5.92-4.16 8.96-6.064 0.736-0.464 1.504-0.752 2.256-1.136a471.232 471.232 0 0 1 99.84-46.928c0.656-0.272 1.264-0.64 1.952-0.864 1.328-0.432 2.72-0.752 4.064-1.168 0.928-0.304 1.856-0.656 2.8-0.96 7.632-2.368 15.328-4.544 23.12-6.528 0.56-0.16 1.104-0.352 1.664-0.496 0.4-0.096 0.784-0.08 1.168-0.176a471.2 471.2 0 0 1 112.624-14.016L502.704 32v0.032L503.6 32h0.4c7.536 0 15.024 0.176 22.512 0.528 1.888 0.096 3.776 0.288 5.664 0.4 1.088 0.064 2.256 0.032 3.36 0.112 0.448 0.032 0.864 0.16 1.328 0.224 4 0.272 8.032 0.48 12.016 0.864 3.44 0.32 6.832 0.8 10.256 1.2 3.968 0.464 7.952 0.848 11.888 1.424 3.424 0.48 6.816 1.12 10.208 1.68 3.936 0.656 7.872 1.232 11.776 1.984 3.232 0.608 6.4 1.376 9.6 2.048 4.048 0.864 8.128 1.68 12.16 2.64 2.896 0.704 5.728 1.52 8.608 2.272 4.304 1.12 8.64 2.208 12.928 3.456 2.432 0.704 4.832 1.536 7.28 2.288l3.536 1.104c0.464 0.128 0.928 0.16 1.376 0.304 1.024 0.32 2 0.752 3.024 1.088 2 0.656 4.032 1.28 6.032 1.968 1.952 0.672 3.888 1.44 5.84 2.144 4.992 1.776 10 3.584 14.944 5.552 0.384 0.16 0.784 0.272 1.184 0.432 0.16 0.064 0.32 0.176 0.496 0.256 0.912 0.368 1.792 0.784 2.688 1.152 5.52 2.256 11.008 4.56 16.432 7.024 0.864 0.384 1.696 0.816 2.544 1.216 5.968 2.752 11.872 5.584 17.712 8.592l0.976 0.528a468.032 468.032 0 0 1 58.976 36.24c0.304 0.192 0.624 0.304 0.912 0.512 1.04 0.768 2 1.6 3.024 2.368 7.04 5.168 13.936 10.528 20.704 16.096 0.736 0.608 1.552 1.168 2.288 1.776 0.096 0.096 0.176 0.224 0.304 0.32 6.416 5.36 12.736 10.864 18.896 16.592l-0.16 0.16c1.248 1.184 2.56 2.272 3.808 3.472l17.856 16.96L520 505.936v428.208z m332.656-687.936a24 24 0 1 1 38.688-28.384c6.448 8.784 12.688 17.92 18.528 27.2a23.968 23.968 0 0 1-20.272 36.8 24 24 0 0 1-20.32-11.2 422.88 422.88 0 0 0-16.624-24.416z m60.544 121.28a23.984 23.984 0 1 1 45.6-14.976c3.408 10.4 6.496 21.04 9.168 31.616a24 24 0 1 1-46.528 11.76 439.312 439.312 0 0 0-8.24-28.4z m-157.488 469.12A24 24 0 0 1 784 875.408c-8.896 6.48-18.064 12.672-27.264 18.432a24 24 0 0 1-25.488-40.672c8.24-5.168 16.48-10.736 24.48-16.56zM953.056 480a24 24 0 0 1 24 24v1.712c0 10.928-0.368 21.984-1.12 32.864a24 24 0 1 1-47.872-3.264c0.64-9.776 0.992-19.648 0.992-29.6V504a24 24 0 0 1 24-24z m-63.68 260.592a24 24 0 0 1 5.28 33.536 475.504 475.504 0 0 1-20.272 25.92 23.888 23.888 0 0 1-18.4 8.576 23.984 23.984 0 0 1-18.368-39.408c6.288-7.52 12.432-15.36 18.24-23.344a24.016 24.016 0 0 1 33.52-5.28z m48.72-131.424a24 24 0 0 1 15.424 30.24 481.6 481.6 0 0 1-11.248 30.944 24.032 24.032 0 0 1-31.2 13.312 23.968 23.968 0 0 1-13.328-31.2c3.68-9.152 7.056-18.432 10.112-27.888a24.048 24.048 0 0 1 30.24-15.408z" fill="#F59A23" p-id="12924"></path></svg>