<?xml version="1.0" standalone="no"?><!DOCTYPE svg PUBLIC "-//W3C//DTD SVG 1.1//EN" "http://www.w3.org/Graphics/SVG/1.1/DTD/svg11.dtd"><svg t="1589204024026" class="icon" viewBox="0 0 1024 1024" version="1.1" xmlns="http://www.w3.org/2000/svg" p-id="1287" xmlns:xlink="http://www.w3.org/1999/xlink" width="200" height="200"><defs><style type="text/css"></style></defs><path d="M294.4 781.824l82.432 0.512v-61.44H294.4zM458.24 781.824l81.92 0.512v-61.44h-81.92zM621.568 781.824l82.432 0.512v-61.44h-81.92z" p-id="1288" fill="#f4ea2a"></path><path d="M796.16 850.944v81.92H1024L719.872 299.008h-34.304V132.096c0-22.528-18.432-40.96-40.96-40.96H379.392c-22.528 0-40.96 18.432-40.96 40.96v166.912h-34.304L0 932.864h227.84v-81.92H130.048l32.768-68.608h49.664v-61.44h-19.968l163.328-339.968h312.32l163.328 339.968h-45.568v61.44h75.264l32.768 68.608h-97.792zM399.872 152.576h224.256v142.848H399.872V152.576z" p-id="1289" fill="#f4ea2a"></path></svg>