<?xml version="1.0" standalone="no"?><!DOCTYPE svg PUBLIC "-//W3C//DTD SVG 1.1//EN" "http://www.w3.org/Graphics/SVG/1.1/DTD/svg11.dtd"><svg t="1587694205288" class="icon" viewBox="0 0 1024 1024" version="1.1" xmlns="http://www.w3.org/2000/svg" p-id="1657" xmlns:xlink="http://www.w3.org/1999/xlink" width="200" height="200"><defs><style type="text/css"></style></defs><path d="M512.10666667 605.01333333c-96.21333333 0-174.50666667-78.18666667-174.50666667-174.4s78.29333333-174.50666667 174.50666667-174.50666666 174.50666667 78.29333333 174.50666666 174.50666666-78.29333333 174.4-174.50666666 174.4z m0-302.4c-70.50666667 0-127.89333333 57.38666667-127.89333334 128a127.89333333 127.89333333 0 1 0 255.78666667 0c0-70.61333333-57.38666667-128-127.89333333-128z" fill="#656565" p-id="1658"></path><path d="M512.10666667 35.09333333c-218.02666667 0-395.41333333 177.38666667-395.41333334 395.52A392.42666667 392.42666667 0 0 0 178.13333333 641.38666667l5.76 9.81333333c37.12 56.42666667 227.73333333 337.70666667 328.21333334 337.70666667 75.84 0 207.46666667-165.44 310.72-314.56a392.74666667 392.74666667 0 0 0 84.69333333-243.73333334c0-218.13333333-177.38666667-395.52-395.41333333-395.52z m0 907.2c-34.34666667 0-103.89333333-71.04-172.37333334-156.37333333-38.18666667-47.57333333-76.16-99.41333333-107.41333333-146.02666667 0 0-19.94666667-30.08-28.58666667-46.50666666a346.13333333 346.13333333 0 0 1-40.53333333-162.77333334c0-192.42666667 156.48-348.90666667 348.90666667-348.90666666s348.90666667 156.48 348.90666666 348.90666666a345.81333333 345.81333333 0 0 1-40.96 163.62666667 356.8 356.8 0 0 1-36.69333333 55.46666667c-35.94666667 51.52-70.50666667 98.02666667-102.50666667 138.02666666-77.33333333 96.32-139.62666667 154.56-168.74666666 154.56z" fill="#656565" p-id="1659"></path></svg>