<?xml version="1.0" standalone="no"?><!DOCTYPE svg PUBLIC "-//W3C//DTD SVG 1.1//EN" "http://www.w3.org/Graphics/SVG/1.1/DTD/svg11.dtd"><svg t="1587692412915" class="icon" viewBox="0 0 1024 1024" version="1.1" xmlns="http://www.w3.org/2000/svg" p-id="9784" width="200" height="200" xmlns:xlink="http://www.w3.org/1999/xlink"><defs><style type="text/css"></style></defs><path d="M855.154501 455.390931l-564.667519-0.945338c-0.228532-75.293768-20.697758-191.982043 44.295959-262.809872 39.537056-43.154306 106.159692-87.581142 177.249275-87.581142 105.020052 0 183.539445 78.290861 221.545235 175.1945 11.082296 27.934271 20.828634 42.992219 44.329182 43.807686 58.89785 1.759798 55.312816-59.681101 44.295959-87.614365C767.280394 95.546542 664.248672 16.440215 512.032216 16.440215c-103.455564 0-160.462739 20.990721-221.545235 87.614365-93.4817 101.792414-88.852666 266.361683-88.624134 350.391014l-32.952916 0.945338c-30.801493 0-55.671219 24.347224-55.671219 54.302039l0 459.779351c0 30.116903 24.935165 54.400701 55.671219 54.400701l686.180136 0c30.76827 0 55.671219-24.316014 55.671219-54.400701L910.761287 509.69297C910.826726 479.705939 885.891561 455.390931 855.154501 455.390931L855.154501 455.390931 855.154501 455.390931 855.154501 455.390931zM823.570764 892.092569c0 12.125287-4.301839 22.521987-13.038409 31.030024-8.637908 8.571463-19.100046 12.874309-31.356211 12.874309L246.419555 935.996903c-12.256165 0-22.718303-4.237407-31.322989-12.874309-8.670124-8.572469-13.070625-18.904737-13.070625-31.030024L202.025941 584.9213c0-24.151914 19.883298-43.806679 44.393614-43.806679l532.757595 0c24.479107 0 44.393614 19.654765 44.393614 43.806679L823.570764 892.092569 823.570764 892.092569 823.570764 892.092569 823.570764 892.092569z" p-id="9785" fill="#656565"></path></svg>