<?xml version="1.0" standalone="no"?><!DOCTYPE svg PUBLIC "-//W3C//DTD SVG 1.1//EN" "http://www.w3.org/Graphics/SVG/1.1/DTD/svg11.dtd"><svg t="1587694249336" class="icon" viewBox="0 0 1026 1024" version="1.1" xmlns="http://www.w3.org/2000/svg" p-id="2189" xmlns:xlink="http://www.w3.org/1999/xlink" width="200.390625" height="200"><defs><style type="text/css"></style></defs><path d="M512 0a512 512 0 1 0 512 512 512 512 0 0 0-512-512z m0 960a448 448 0 1 1 448-448 448 448 0 0 1-448 448z" fill="#656565" p-id="2190"></path><path d="M718.08 329.6l-293.76 294.4-120.96-120.96a32 32 0 0 0-47.36 45.44l143.36 143.36a32 32 0 0 0 45.44 0l316.8-316.8a32 32 0 0 0-45.44-45.44z" fill="#70B603" p-id="2191"></path></svg>