<?xml version="1.0" standalone="no"?><!DOCTYPE svg PUBLIC "-//W3C//DTD SVG 1.1//EN" "http://www.w3.org/Graphics/SVG/1.1/DTD/svg11.dtd"><svg t="1587691896418" class="icon" viewBox="0 0 1024 1024" version="1.1" xmlns="http://www.w3.org/2000/svg" p-id="4519" xmlns:xlink="http://www.w3.org/1999/xlink" width="200" height="200"><defs><style type="text/css"></style></defs><path d="M707.950617 82.17284c-50.567901-50.567901-126.419753-82.17284-202.271605-82.17284-69.530864 0-139.061728 31.604938-195.950617 82.17284-50.567901 50.567901-75.851852 120.098765-75.851852 195.950617 0 94.814815 44.246914 170.666667 113.777778 227.555555-63.209877 25.283951-120.098765 56.888889-158.024691 94.814815-94.814815 94.814815-139.061728 221.234568-139.061729 379.259259 0 25.283951 25.283951 44.246914 44.246914 44.246914 18.962963 0 44.246914-12.641975 44.246913-37.925926 0-170.666667 63.209877-297.08642 183.308642-372.938272 94.814815-50.567901 189.62963-56.888889 189.62963-56.888888H530.962963c120.098765-37.925926 151.703704-69.530864 183.308642-101.135803 0-6.320988 6.320988-6.320988 6.320988-12.641975 44.246914-63.209877 56.888889-94.814815 56.888888-164.345679 6.320988-101.135802-31.604938-151.703704-69.530864-195.950617z m-18.962963 195.950617c0 50.567901-12.641975 94.814815-50.567901 132.740741-37.925926 37.925926-82.17284 56.888889-139.061728 56.888888-101.135802 0-189.62963-88.493827-189.62963-195.950617 0-107.45679 82.17284-195.950617 189.62963-195.950617 107.45679 6.320988 189.62963 94.814815 189.629629 202.271605zM802.765432 575.209877c-18.962963-12.641975-37.925926-6.320988-50.567901 12.641975-12.641975 18.962963-6.320988 37.925926 12.641975 44.246913 0 0 31.604938 18.962963 56.888889 69.530865 31.604938 50.567901 69.530864 139.061728 69.530864 284.444444 0 18.962963 18.962963 37.925926 37.925926 37.925926s37.925926-12.641975 37.925926-37.925926c0-316.049383-158.024691-404.54321-164.345679-410.864197z" p-id="4520" fill="#ffffff"></path></svg>