<?xml version="1.0" standalone="no"?><!DOCTYPE svg PUBLIC "-//W3C//DTD SVG 1.1//EN" "http://www.w3.org/Graphics/SVG/1.1/DTD/svg11.dtd"><svg t="1589203881753" class="icon" viewBox="0 0 1024 1024" version="1.1" xmlns="http://www.w3.org/2000/svg" p-id="1115" xmlns:xlink="http://www.w3.org/1999/xlink" width="200" height="200"><defs><style type="text/css"></style></defs><path d="M511.999 1.28C229.946 1.28 1.28 229.946 1.28 511.999s228.666 510.719 510.719 510.719 510.719-228.666 510.719-510.719S794.052 1.28 511.999 1.28zM242.687 597.153c-37.518 0-67.968-30.45-67.968-67.968s30.45-67.968 67.968-67.968 67.968 30.45 67.968 67.968S280.206 597.153 242.687 597.153zM514.559 597.153c-37.518 0-67.968-30.45-67.968-67.968s30.45-67.968 67.968-67.968c37.518 0 67.968 30.45 67.968 67.968S552.077 597.153 514.559 597.153zM786.43 597.153c-37.518 0-67.968-30.45-67.968-67.968s30.45-67.968 67.968-67.968 67.968 30.45 67.968 67.968S823.948 597.153 786.43 597.153z" p-id="1116" fill="#f59a23"></path></svg>