<?xml version="1.0" standalone="no"?><!DOCTYPE svg PUBLIC "-//W3C//DTD SVG 1.1//EN" "http://www.w3.org/Graphics/SVG/1.1/DTD/svg11.dtd"><svg t="1587694101713" class="icon" viewBox="0 0 1024 1024" version="1.1" xmlns="http://www.w3.org/2000/svg" p-id="1030" xmlns:xlink="http://www.w3.org/1999/xlink" width="200" height="200"><defs><style type="text/css"></style></defs><path d="M547.84 969.547294a32.286118 32.286118 0 0 1-31.744-32.707765V376.952471c0-7.830588 2.710588-15.36 7.710118-21.323295L764.385882 66.861176H111.917176l220.882824 289.912471a33.551059 33.551059 0 0 1 6.806588 20.239059v334.305882l95.472941 98.544941c5.903059 6.144 9.155765 14.456471 9.09553 23.130353a33.129412 33.129412 0 0 1-9.456941 23.070118 31.021176 31.021176 0 0 1-44.513883 0L285.515294 747.881412a33.069176 33.069176 0 0 1-9.276235-23.130353V388.276706L21.744941 54.332235A33.490824 33.490824 0 0 1 27.045647 8.372706 31.201882 31.201882 0 0 1 46.622118 1.325176h786.793411c8.432941 0 16.504471 3.433412 22.40753 9.637648a33.370353 33.370353 0 0 1 1.626353 44.453647L579.523765 389.12v547.719529c0 18.070588-14.215529 32.707765-31.683765 32.707765" fill="#666666" p-id="1031"></path><path d="M701.680941 475.015529a32.286118 32.286118 0 0 1-31.201882-33.129411 32.045176 32.045176 0 0 1 31.322353-32.346353h245.157647c17.528471 0 31.744 14.697412 31.744 32.768 0 18.070588-14.215529 32.707765-31.683765 32.707764h-245.338353z m0 202.511059a32.286118 32.286118 0 0 1-31.683765-32.768c0-18.070588 14.215529-32.647529 31.683765-32.707764h245.338353c17.468235 0.060235 31.623529 14.697412 31.683765 32.768-0.060235 18.070588-14.215529 32.647529-31.683765 32.707764h-245.338353z m0 204.8a31.021176 31.021176 0 0 1-22.407529-9.517176 33.069176 33.069176 0 0 1-9.276236-23.190588c0-18.070588 14.215529-32.647529 31.683765-32.707765h245.338353c17.468235 0 31.623529 14.697412 31.683765 32.768-0.060235 18.070588-14.215529 32.647529-31.683765 32.707765h-245.338353z" fill="#555555" p-id="1032"></path></svg>