<?xml version="1.0" standalone="no"?><!DOCTYPE svg PUBLIC "-//W3C//DTD SVG 1.1//EN" "http://www.w3.org/Graphics/SVG/1.1/DTD/svg11.dtd"><svg t="1587694240302" class="icon" viewBox="0 0 1039 1024" version="1.1" xmlns="http://www.w3.org/2000/svg" p-id="2027" xmlns:xlink="http://www.w3.org/1999/xlink" width="202.9296875" height="200"><defs><style type="text/css"></style></defs><path d="M939.223 862.773c-12.304 49.581-55.964 85.734-107.63 85.734-47.96 0-88.809-30.728-104.355-75.017H296.752c-15.547 44.323-56.429 75.017-104.39 75.017-51.665 0-95.258-36.153-107.596-85.734-53.717-22.525-87.95-78.126-83.452-139.847l10.551-143.583c4.134-57.322 40.22-107.994 91.919-131.61l46.44-223.827c17-81.83 97.21-148.414 178.843-148.414h365.855c81.632 0 161.842 66.55 178.81 148.414l46.44 223.826c51.698 23.616 87.784 74.29 91.952 131.61l10.518 143.584c4.498 61.722-29.702 117.323-83.419 139.847z m10.585-278.634c-2.744-37.277-30.165-71.114-66.748-82.293-11.974-3.672-20.673-14.29-22.128-26.991-0.231-1.818-0.363-3.605-0.462-5.358-0.067-0.926-0.067-1.885-0.264-2.845l-47.564-229.384c-11.015-52.954-64.929-97.706-117.718-97.706H329.067c-52.823 0-106.705 44.752-117.718 97.706l-47.597 229.417c-0.199 0.86-0.199 1.82-0.265 2.778-0.132 1.82-0.264 3.673-0.462 5.491-1.488 12.702-10.155 23.253-22.095 26.924-36.615 11.147-64.068 44.983-66.78 82.294L63.63 727.756c-2.812 38.203 20.242 70.849 56.064 79.35 13.562 3.274 23.418 15.38 24.113 29.67 1.29 26.758 22.625 47.694 48.556 47.694 25.336 0 46.108-19.68 48.358-45.81 1.455-16.504 14.95-29.173 31.124-29.173h480.267c16.174 0 29.735 12.669 31.125 29.174 2.249 26.13 23.02 45.81 48.357 45.81 25.931 0 47.265-20.97 48.556-47.695 0.727-14.356 10.584-26.429 24.146-29.67 35.788-8.501 58.843-41.18 55.997-79.384L949.808 584.14zM840.26 711.284c-13.098 13.396-31.455 21.202-49.945 21.202-18.49 0-36.847-7.807-49.913-21.202-13.065-13.396-20.672-32.216-20.672-51.169 0-18.952 7.607-37.806 20.672-51.202 13.066-13.396 31.423-21.202 49.913-21.202s36.847 7.807 49.945 21.202c13.065 13.396 20.672 32.25 20.672 51.202 0 18.953-7.607 37.773-20.672 51.169z m-59.934-245.26c-6.12 7.574-16.076 11.974-27.684 11.974h-481.36c-11.576 0-21.533-4.4-28.081-12.438-6.25-7.376-8.93-18.093-7.177-29.702 0.165-0.794 0.297-1.555 0.463-2.316l37.806-168.457c4.763-26.593 30.43-48.754 56.825-48.754h361.688c26.395 0 52.063 22.226 56.792 48.754l37.806 168.49c0.199 0.761 0.331 1.523 0.463 2.317 1.72 11.609-0.926 22.326-7.54 30.132z m-91.324-185.657H335.02L305.021 413.93H718.97l-29.968-133.562zM283.587 711.284c-13.066 13.396-31.423 21.202-49.913 21.202s-36.846-7.807-49.912-21.202c-13.098-13.396-20.705-32.216-20.705-51.169 0-18.952 7.607-37.806 20.705-51.202 13.066-13.396 31.423-21.202 49.912-21.202 18.49 0 36.847 7.807 49.913 21.202 13.098 13.396 20.705 32.25 20.705 51.202 0 18.953-7.607 37.773-20.705 51.169z" p-id="2028" fill="#1389BC"></path></svg>