<?xml version="1.0" standalone="no"?><!DOCTYPE svg PUBLIC "-//W3C//DTD SVG 1.1//EN" "http://www.w3.org/Graphics/SVG/1.1/DTD/svg11.dtd"><svg t="1589210504350" class="icon" viewBox="0 0 1024 1024" version="1.1" xmlns="http://www.w3.org/2000/svg" p-id="2784" xmlns:xlink="http://www.w3.org/1999/xlink" width="200" height="200"><defs><style type="text/css"></style></defs><path d="M499.2 1024c-256 0-460.8-204.8-460.8-460.8 0-185.6 115.2-358.4 288-428.8h12.8c19.2 0 38.4 19.2 38.4 38.4 0 12.8-12.8 32-25.6 32-147.2 64-236.8 204.8-236.8 358.4 0 217.6 172.8 390.4 390.4 390.4S896 780.8 896 563.2c0-153.6-96-294.4-236.8-358.4-19.2-6.4-32-19.2-32-38.4s19.2-38.4 38.4-38.4h12.8c172.8 70.4 288 236.8 288 428.8 0 262.4-211.2 467.2-467.2 467.2z m0-505.6c-19.2 0-38.4-19.2-38.4-38.4V38.4c6.4-19.2 19.2-38.4 38.4-38.4s38.4 19.2 38.4 38.4v441.6c0 19.2-12.8 38.4-38.4 38.4z" p-id="2785" fill="#ffffff"></path></svg>